<?xml version="1.0" encoding="UTF-8" standalone="no"?>
<svg
   enable-background="new 0 0 50 50"
   height="57"
   viewBox="0 0 57 57"
   width="57"
   version="1.1"
   id="svg1"
   sodipodi:docname="sea_15611013.svg"
   inkscape:export-filename="sea_15611013.png"
   inkscape:export-xdpi="1012.4506"
   inkscape:export-ydpi="1012.4506"
   inkscape:version="1.4 (86a8ad7, 2024-10-11)"
   xmlns:inkscape="http://www.inkscape.org/namespaces/inkscape"
   xmlns:sodipodi="http://sodipodi.sourceforge.net/DTD/sodipodi-0.dtd"
   xmlns:xlink="http://www.w3.org/1999/xlink"
   xmlns="http://www.w3.org/2000/svg"
   xmlns:svg="http://www.w3.org/2000/svg">
  <defs
     id="defs1">
    <linearGradient
       id="linearGradient1"
       inkscape:collect="always">
      <stop
         style="stop-color:#63b337;stop-opacity:1;"
         offset="0"
         id="stop1" />
      <stop
         style="stop-color:#63b337;stop-opacity:0.50196081;"
         offset="1"
         id="stop2" />
    </linearGradient>
    <radialGradient
       inkscape:collect="always"
       xlink:href="#linearGradient1"
       id="radialGradient2"
       cx="25.000626"
       cy="24.999802"
       fx="25.000626"
       fy="24.999802"
       r="24.273779"
       gradientTransform="matrix(1,0,0,1.0299211,0,-0.74802241)"
       gradientUnits="userSpaceOnUse" />
    <radialGradient
       inkscape:collect="always"
       xlink:href="#linearGradient1"
       id="radialGradient3"
       gradientUnits="userSpaceOnUse"
       gradientTransform="matrix(1,0,0,1.0299211,0,-0.74802241)"
       cx="25.000626"
       cy="24.999802"
       fx="25.000626"
       fy="24.999802"
       r="24.273779" />
  </defs>
  <sodipodi:namedview
     id="namedview1"
     pagecolor="#ffffff"
     bordercolor="#000000"
     borderopacity="0.25"
     inkscape:showpageshadow="2"
     inkscape:pageopacity="0.0"
     inkscape:pagecheckerboard="0"
     inkscape:deskcolor="#d1d1d1"
     inkscape:export-bgcolor="#0d191780"
     inkscape:zoom="16.503872"
     inkscape:cx="11.694225"
     inkscape:cy="29.205267"
     inkscape:window-width="2558"
     inkscape:window-height="1360"
     inkscape:window-x="1273"
     inkscape:window-y="0"
     inkscape:window-maximized="0"
     inkscape:current-layer="svg1" />
  <g
     id="Layer_22" />
  <g
     id="Layer_21" />
  <g
     id="Layer_20" />
  <g
     id="Layer_19" />
  <g
     id="Layer_18" />
  <g
     id="Layer_17" />
  <g
     id="Layer_16" />
  <g
     id="Layer_15" />
  <g
     id="Layer_14" />
  <g
     id="Layer_13" />
  <g
     id="Layer_12"
     style="fill:url(#radialGradient2)"
     transform="translate(3.4993743,3.5001992)">
    <path
       clip-rule="evenodd"
       d="M 15.079,45.124 18.4,39.383 c 0.514,-0.888 0.513,-1.92 0,-2.808 L 16.551,33.372 C 15.995,32.414 15.195,31.886 14.069,31.886 H 7.79 c 0.471,5.114 3.749,9.7 7.289,13.238 m 16.313,-8.549 c -0.552,0.959 -0.498,1.944 0.047,2.89 l 3.127,5.434 c 3.445,-3.498 6.602,-8.001 7.065,-13.012 h -5.907 c -1.064,0 -1.887,0.489 -2.431,1.397 z m 11.864,-1.283 c -0.884,3.043 -2.541,5.823 -4.507,8.288 l 2.677,1.633 c 2.167,1.321 5.009,-0.115 5.158,-2.705 0.163,-2.799 -1.339,-5.36 -3.328,-7.216 z M 10.861,43.817 C 8.904,41.409 7.239,38.7 6.295,35.729 c -1.758,1.808 -3.03,4.197 -2.88,6.779 0.146,2.566 2.969,4.04 5.158,2.704 z m 7.802,-11.777 1.901,3.292 c 0.524,0.907 1.388,1.397 2.432,1.397 h 3.803 c 1.043,0 1.908,-0.491 2.431,-1.397 l 1.9,-3.292 c 0.539,-0.934 0.499,-1.946 -0.032,-2.869 l -1.869,-3.237 c -0.521,-0.903 -1.391,-1.397 -2.431,-1.397 h -3.803 c -1.071,0 -1.915,0.505 -2.447,1.423 l -1.886,3.266 c -0.512,0.892 -0.511,1.922 0.001,2.814 z M 14.07,29.38 c 1.176,0 1.83,-0.371 2.431,-1.397 l 1.876,-3.25 c 0.6,-1.024 0.628,-1.816 0.024,-2.849 L 13.829,13.996 C 9.977,18.095 8.009,23.824 7.76,29.381 h 6.31 z m 6.494,-8.75 c 0.527,0.91 1.381,1.402 2.432,1.402 h 3.803 c 1.043,0 1.908,-0.492 2.431,-1.397 l 4.742,-8.167 C 28.5,7.919 21.275,7.811 15.708,12.256 Z m 10.828,1.247 c -0.601,1.035 -0.584,1.792 0,2.814 l 1.879,3.254 c 0.601,1.044 1.259,1.435 2.453,1.435 h 5.937 C 41.416,23.917 39.525,18.344 35.823,14.246 Z m 8.996,-5.125 c 1.94,3.39 3.066,7.25 3.424,11.133 l 1.99,0.403 c 2.021,0.408 3.826,-1.353 3.413,-3.411 C 48.34,20.536 44.47,17.779 40.388,16.752 Z M 5.598,28.005 C 5.937,24.152 7.03,20.323 8.924,16.943 5.101,18.1 1.611,20.777 0.786,24.877 0.376,26.915 2.16,28.7 4.199,28.288 Z M 17.567,8.414 c 4.561,-2.255 9.746,-2.245 14.285,0 C 32.207,6.235 31.652,4.356 30.21,2.651 27.221,-0.885 22.306,-0.86 19.246,2.582 17.799,4.212 17.139,6.271 17.567,8.414 Z m -0.62,38.467 c 4.861,4.274 10.964,4.107 15.753,-0.204 l -3.423,-5.958 c -0.609,-1.062 -1.211,-1.485 -2.478,-1.485 h -3.803 c -1.167,0 -1.844,0.376 -2.432,1.401 z"
       fill-rule="evenodd"
       id="path1"
       style="fill:url(#radialGradient3)" />
  </g>
  <g
     id="Layer_11" />
  <g
     id="Layer_10" />
  <g
     id="Layer_9" />
  <g
     id="Layer_8" />
  <g
     id="Layer_7" />
  <g
     id="Layer_6" />
  <g
     id="Layer_5" />
  <g
     id="Layer_4" />
  <g
     id="Layer_3" />
  <g
     id="Layer_2" />
</svg>
